<?xml version="1.0" standalone="no"?>
<!DOCTYPE svg PUBLIC "-//W3C//DTD SVG 20010904//EN"
 "http://www.w3.org/TR/2001/REC-SVG-20010904/DTD/svg10.dtd">
<svg version="1.0" xmlns="http://www.w3.org/2000/svg"
 width="512.000000pt" height="512.000000pt" viewBox="0 0 512.000000 512.000000"
 preserveAspectRatio="xMidYMid meet">
<metadata>
Created by potrace 1.11, written by Peter Selinger 2001-2013
</metadata>
<g transform="translate(0.000000,512.000000) scale(0.100000,-0.100000)"
fill="#000000" stroke="none">
<path d="M2844 5096 c-86 -34 -139 -62 -221 -118 -79 -55 -234 -209 -279 -279
-16 -24 -32 -46 -35 -49 -19 -15 -112 -213 -138 -294 -46 -143 -54 -194 -54
-326 0 -122 19 -248 51 -351 50 -156 72 -232 69 -235 -7 -7 -93 85 -137 148
-81 116 -156 324 -176 488 -12 104 -13 115 -15 210 l-1 95 -40 -45 c-21 -25
-72 -90 -112 -145 -290 -400 -483 -824 -542 -1193 -3 -20 -8 -48 -11 -62 -2
-14 -6 -97 -8 -185 -4 -129 -1 -180 15 -266 21 -116 67 -258 106 -328 13 -24
24 -47 24 -51 0 -11 84 -135 126 -187 40 -49 36 -52 -33 -22 -146 65 -242 72
-336 25 -55 -27 -108 -80 -135 -136 -33 -70 -142 -376 -148 -415 -12 -90 27
-189 101 -254 41 -36 72 -51 210 -101 50 -18 93 -35 97 -39 4 -4 -52 -29 -124
-56 -85 -32 -149 -63 -179 -87 -81 -64 -123 -189 -97 -288 14 -52 127 -349
150 -395 45 -88 136 -145 240 -150 72 -4 58 -9 598 195 552 209 597 225 684
256 l68 24 152 -56 c83 -31 180 -67 216 -80 36 -14 106 -40 155 -59 50 -18
119 -45 155 -58 36 -14 157 -59 270 -101 113 -43 230 -87 260 -99 115 -45 246
-22 324 56 42 42 63 82 117 223 84 222 97 268 93 328 -8 129 -79 213 -231 271
-54 21 -118 46 -143 55 l-45 18 39 16 c21 9 41 16 43 16 6 0 130 48 172 67
119 54 194 207 161 331 -23 81 -140 382 -164 421 -47 73 -131 120 -228 126
-67 4 -127 -15 -418 -127 -36 -14 -72 -28 -80 -31 -8 -3 -39 -15 -69 -27 l-55
-21 40 38 c226 216 394 557 449 915 39 251 28 534 -31 761 -79 309 -262 629
-501 877 l-72 75 8 -37 c14 -62 13 -249 -3 -328 -15 -79 -54 -186 -85 -233
l-18 -28 -27 77 c-15 42 -72 167 -126 278 -87 177 -106 225 -127 311 -11 48
-10 221 3 292 17 93 67 249 100 315 35 69 37 68 -52 34z"/>
</g>
</svg>
